# Blender 4.3.2
# www.blender.org
o COM_constraints_in_FR_foot_joint_effector_frame_quasi_static_re
v -0.001028 0.008494 0.327592
v 0.014293 0.011966 0.309169
v -0.010355 0.001064 0.312884
v 0.016840 0.002557 0.333441
v -0.006225 -0.002601 0.339854
v 0.002606 -0.012807 0.313975
v -0.007283 0.005962 0.319416
v -0.004943 0.002518 0.342665
v 0.006738 -0.009197 0.306762
v 0.016687 -0.010004 0.317982
v -0.008550 -0.004822 0.317875
v -0.012092 0.000210 0.335660
v 0.019131 -0.000462 0.304396
v 0.003352 0.002375 0.305037
vn -0.8208 0.5698 -0.0412
vn -0.5154 -0.8425 0.1564
vn -0.5482 -0.8270 0.1248
vn 0.3347 -0.5165 0.7882
vn 0.1959 0.9211 0.3365
vn 0.1681 0.9007 0.4007
vn 0.9890 0.1335 0.0641
vn -0.4007 0.7078 -0.5818
vn -0.5794 -0.5860 -0.5665
vn -0.9304 -0.3568 -0.0843
vn 0.2684 -0.9142 -0.3037
vn -0.4199 0.8098 -0.4097
vn -0.2972 0.9524 -0.0676
vn 0.4527 -0.7659 -0.4565
vn -0.4606 -0.2613 -0.8483
vn -0.6383 -0.2416 0.7309
vn -0.0188 0.1196 -0.9926
vn -0.5046 0.8452 0.1760
vn 0.2120 -0.8365 0.5052
s 0
f 12//1 7//1 3//1
f 5//2 12//2 6//2
f 12//3 11//3 6//3
f 8//4 5//4 4//4
f 1//5 4//5 2//5
f 1//6 8//6 4//6
f 4//7 10//7 13//7 2//7
f 3//8 2//8 14//8
f 11//9 3//9 9//9 6//9
f 11//10 12//10 3//10
f 10//11 6//11 9//11
f 3//12 7//12 2//12
f 7//13 1//13 2//13
f 10//14 9//14 13//14
f 3//15 14//15 9//15
f 12//16 5//16 8//16
f 14//17 2//17 13//17 9//17
f 12//18 8//18 1//18 7//18
f 5//19 6//19 10//19 4//19
