# Blender 4.3.2
# www.blender.org
o FL_foot_joint_constraints_in_FR_foot_joint_reduced.obj
v -0.607419 0.168174 0.143941
v -0.045324 0.810552 0.047221
v 0.413794 0.134079 -0.260485
v -0.308915 0.643530 -0.167796
v -0.584326 0.052105 -0.201431
v -0.211818 0.071960 0.238980
v -0.558603 0.552924 0.041691
v 0.195348 0.632377 -0.247147
v -0.024844 0.465109 0.280573
v 0.544647 0.551351 0.074817
v 0.675083 0.074292 0.076980
v 0.464015 0.167756 0.285157
v -0.704207 0.217545 -0.047161
v 0.669035 0.362025 -0.010968
vn 0.0905 -0.8710 0.4828
vn 0.7635 -0.1741 -0.6220
vn 0.7497 0.2078 0.6284
vn -0.6124 0.3705 -0.6984
vn -0.7077 -0.6826 0.1821
vn 0.0352 -0.9962 -0.0798
vn 0.2289 0.4922 0.8398
vn 0.7317 0.2030 0.6507
vn -0.0939 0.0478 -0.9944
vn -0.0569 -0.0782 0.9953
vn -0.2910 -0.9126 0.2872
vn -0.8409 0.2361 0.4869
vn -0.4426 0.8849 -0.1448
vn -0.2733 0.5273 0.8045
vn 0.4014 0.8912 -0.2112
vn -0.0694 0.8273 -0.5575
vn 0.5799 0.3921 -0.7142
vn -0.3043 0.1654 0.9381
s 0
f 6//1 11//1 12//1
f 11//2 3//2 14//2
f 11//3 14//3 10//3
f 13//4 7//4 4//4 5//4
f 1//5 13//5 5//5
f 3//6 11//6 6//6 5//6
f 12//7 10//7 2//7 9//7
f 12//8 11//8 10//8
f 3//9 5//9 4//9 8//9
f 6//10 12//10 9//10
f 6//11 1//11 5//11
f 13//12 1//12 7//12
f 4//13 7//13 2//13
f 7//14 9//14 2//14
f 10//15 8//15 2//15
f 8//16 4//16 2//16
f 14//17 3//17 8//17 10//17
f 1//18 6//18 9//18 7//18
