# Blender 4.3.2
# www.blender.org
o FR_foot_joint_constraints_in_RL_foot_joint_reduced.obj
v 0.847149 -0.664414 0.006082
v -0.187979 -0.200050 0.232331
v 0.552192 -0.485343 0.273097
v 0.967798 -0.123996 -0.207132
v 0.234059 -0.735365 0.153722
v -0.243888 -0.445758 0.060922
v 0.351395 -0.073782 0.269467
v 0.122238 -0.747239 -0.056720
v 0.204521 -0.067206 -0.265849
v 1.066667 -0.278380 -0.153996
v -0.198266 -0.068487 -0.084675
v 0.526914 -0.586832 -0.267743
v -0.056858 -0.384586 -0.226481
v 1.093509 -0.167865 0.153721
vn 0.2476 -0.6557 0.7133
vn 0.8813 -0.4639 0.0897
vn 0.8529 0.4633 -0.2408
vn 0.4350 -0.4481 0.7810
vn 0.1301 0.0059 -0.9915
vn -0.6250 0.0692 -0.7775
vn 0.4613 -0.5508 -0.6956
vn -0.6336 -0.5619 -0.5319
vn -0.9830 0.1562 0.0967
vn 0.1645 0.0889 0.9824
vn -0.4897 -0.6078 0.6251
vn -0.1126 -0.1518 0.9820
vn -0.1614 -0.2722 -0.9486
vn 0.1311 -0.9600 -0.2472
vn -0.1052 0.9784 0.1780
vn 0.1006 0.9946 0.0254
s 0
f 5//1 1//1 3//1
f 1//2 10//2 14//2
f 14//3 10//3 4//3
f 1//4 14//4 3//4
f 10//5 12//5 9//5 4//5
f 6//6 11//6 9//6 13//6
f 10//7 1//7 12//7
f 8//8 6//8 13//8
f 6//9 2//9 11//9
f 3//10 14//10 7//10
f 5//11 2//11 6//11 8//11
f 5//12 3//12 7//12 2//12
f 12//13 8//13 13//13 9//13
f 1//14 5//14 8//14 12//14
f 2//15 7//15 9//15 11//15
f 14//16 4//16 9//16 7//16
