# Blender 4.3.2
# www.blender.org
o FR_foot_joint_constraints_in_RR_foot_joint_reduced.obj
v 0.024155 -0.331713 0.188292
v 1.122893 -0.046955 -0.050980
v 0.823850 0.311715 -0.209838
v 0.035323 0.127391 0.275098
v 0.075424 -0.269032 -0.141787
v 0.890894 0.348053 0.075171
v 0.029680 0.333518 -0.160385
v 0.740088 -0.339816 -0.082973
v 0.835522 0.013046 -0.283463
v 0.079325 0.323213 0.080937
v 0.023642 0.102443 -0.280351
v 0.885235 -0.087912 0.228170
v 0.926579 -0.326233 0.043220
v 0.527598 -0.322854 0.299643
vn -0.2096 -0.1767 0.9617
vn -0.0036 0.9988 -0.0486
vn 0.0311 -0.9976 0.0615
vn -0.0413 -0.9960 -0.0792
vn 0.0822 0.4750 0.8762
vn -0.9607 -0.2040 -0.1880
vn 0.4728 -0.5421 -0.6947
vn 0.0939 0.1562 0.9833
vn -0.0118 -0.4233 -0.9059
vn 0.4685 -0.4895 0.7355
vn -0.9996 0.0189 0.0202
vn 0.7268 0.2190 0.6509
vn 0.7605 0.4117 -0.5020
vn 0.7431 -0.3250 0.5849
vn -0.8941 0.4002 0.2010
vn -0.0070 0.3432 -0.9392
s 0
f 1//1 14//1 4//1
f 7//2 10//2 6//2 3//2
f 14//3 8//3 13//3
f 1//4 5//4 8//4 14//4
f 4//5 12//5 6//5 10//5
f 5//6 1//6 11//6
f 8//7 9//7 2//7 13//7
f 4//8 14//8 12//8
f 5//9 11//9 9//9 8//9
f 14//10 13//10 12//10
f 1//11 4//11 7//11 11//11
f 12//12 2//12 6//12
f 9//13 3//13 6//13 2//13
f 13//14 2//14 12//14
f 4//15 10//15 7//15
f 11//16 7//16 3//16 9//16
