# Blender 4.3.2
# www.blender.org
o FR_foot_joint_constraints_in_FL_foot_joint_reduced.obj
v 0.607419 -0.168174 -0.143941
v 0.045324 -0.810552 -0.047221
v -0.413794 -0.134079 0.260485
v 0.308915 -0.643530 0.167796
v 0.584326 -0.052105 0.201431
v 0.211818 -0.071960 -0.238980
v 0.558603 -0.552924 -0.041691
v -0.195348 -0.632377 0.247147
v 0.024844 -0.465109 -0.280573
v -0.544647 -0.551351 -0.074817
v -0.675083 -0.074292 -0.076980
v -0.464015 -0.167756 -0.285157
v 0.704207 -0.217545 0.047161
v -0.669035 -0.362025 0.010968
vn -0.4014 -0.8912 0.2112
vn -0.7497 -0.2078 -0.6284
vn -0.7635 0.1741 0.6220
vn 0.0569 0.0782 -0.9953
vn 0.2733 -0.5273 -0.8045
vn -0.7317 -0.2030 -0.6507
vn 0.0939 -0.0478 0.9944
vn -0.0905 0.8710 -0.4828
vn 0.7077 0.6826 -0.1821
vn 0.4426 -0.8849 0.1448
vn 0.2910 0.9126 -0.2872
vn -0.2289 -0.4922 -0.8398
vn 0.8409 -0.2361 -0.4869
vn 0.6124 -0.3705 0.6984
vn -0.0352 0.9962 0.0798
vn -0.5799 -0.3921 0.7142
vn 0.0694 -0.8273 0.5575
vn 0.3043 -0.1654 -0.9381
s 0
f 10//1 2//1 8//1
f 10//2 14//2 11//2
f 14//3 3//3 11//3
f 9//4 12//4 6//4
f 9//5 7//5 2//5
f 12//6 10//6 11//6
f 8//7 4//7 5//7 3//7
f 12//8 11//8 6//8
f 13//9 1//9 5//9
f 2//10 7//10 4//10
f 1//11 6//11 5//11
f 10//12 12//12 9//12 2//12
f 7//13 1//13 13//13
f 7//14 13//14 5//14 4//14
f 11//15 3//15 5//15 6//15
f 14//16 10//16 8//16 3//16
f 8//17 2//17 4//17
f 9//18 6//18 1//18 7//18
