# Blender 4.3.2
# www.blender.org
o FR_foot_joint_constraints_in_RR_foot_joint_reduced.obj
v 0.024155 -0.331713 0.188292
v 1.122893 -0.046955 -0.050980
v 0.823850 0.311715 -0.209838
v 0.035323 0.127391 0.275098
v 0.075424 -0.269032 -0.141787
v 0.890894 0.348053 0.075171
v 0.029680 0.333518 -0.160385
v 0.740088 -0.339816 -0.082973
v 0.835522 0.013046 -0.283463
v 0.079325 0.323213 0.080937
v 0.023642 0.102443 -0.280351
v 0.885235 -0.087912 0.228170
v 0.926579 -0.326233 0.043220
v 0.527598 -0.322854 0.299643
vn 0.0864 0.9762 0.1988
vn 0.4894 -0.5674 -0.6622
vn -0.2096 -0.1767 0.9617
vn -0.0188 0.9967 -0.0795
vn 0.0109 -0.9995 0.0302
vn 0.9607 0.2040 0.1880
vn -0.0166 0.7059 0.7082
vn 0.4642 -0.5291 -0.7103
vn -0.0236 0.4987 0.8665
vn 0.0302 -0.9983 -0.0488
vn 0.0191 0.9912 -0.1309
vn -0.0227 -0.2401 0.9705
vn -0.1344 -0.3266 -0.9356
vn 0.4685 -0.4895 0.7355
vn -0.7431 0.3250 -0.5849
vn 0.8941 -0.4002 -0.2010
vn 0.9996 -0.0205 -0.0201
vn 0.0425 -0.4612 0.8863
vn -0.0939 -0.1562 -0.9833
vn -0.7268 -0.2190 -0.6509
vn -0.7952 -0.5491 0.2571
vn -0.6411 -0.2072 0.7390
vn -0.0426 -0.3544 -0.9341
vn -0.9997 0.0156 0.0203
s 0
f 8//1 5//1 1//1
f 8//2 2//2 13//2
f 1//3 14//3 4//3
f 13//4 8//4 1//4
f 13//5 14//5 1//5
f 5//6 11//6 1//6
f 6//7 10//7 4//7
f 8//8 9//8 2//8
f 8//9 9//9 5//9
f 6//10 10//10 7//10
f 6//11 3//11 7//11
f 11//12 9//12 3//12
f 6//13 12//13 4//13
f 12//14 14//14 13//14
f 12//15 2//15 13//15
f 10//16 4//16 7//16
f 11//17 4//17 1//17
f 11//18 3//18 7//18
f 14//19 4//19 12//19
f 12//20 6//20 2//20
f 3//21 2//21 6//21
f 2//22 3//22 9//22
f 11//23 9//23 5//23
f 7//24 11//24 4//24
