# Blender 4.3.2
# www.blender.org
o go2_RR_foot_joint_constraints_in_RL_foot_joint_reduced.obj
v 0.575768 -0.064357 0.039047
v -0.378229 -0.056520 0.175101
v 0.690157 -0.327905 -0.045379
v 0.209905 -0.095410 0.263062
v -0.441554 -0.357708 -0.235158
v 0.467841 -0.091676 -0.262052
v 0.318101 -0.530977 0.274715
v -0.691559 -0.135725 0.058788
v 0.319355 -0.540746 -0.244192
v -0.162930 -0.811352 -0.041810
v -0.482758 -0.245911 0.262931
v -0.478902 -0.642292 -0.002862
v -0.367986 -0.061040 -0.240180
v 0.362236 -0.719422 0.022739
vn 0.1188 0.4502 0.8850
vn 0.0150 0.0132 0.9998
vn 0.8258 0.2876 0.4851
vn -0.0057 0.0253 0.9997
vn 0.5546 -0.2153 -0.8038
vn 0.3865 0.5522 0.7387
vn 0.7414 0.3787 -0.5540
vn -0.2393 0.9708 -0.0165
vn 0.4090 -0.5599 -0.7206
vn -0.2064 -0.5463 0.8117
vn -0.7048 0.5033 -0.4999
vn -0.0646 0.7937 -0.6049
vn -0.2013 -0.5611 0.8029
vn -0.0273 -0.0307 -0.9992
vn 0.6895 -0.1590 0.7066
vn -0.6171 0.6045 0.5038
vn -0.2092 0.7968 0.5669
vn -0.6415 -0.0329 -0.7665
vn -0.8199 -0.4635 0.3360
vn -0.0067 -0.9999 0.0107
vn -0.0338 -0.9942 0.1023
vn 0.0358 0.9803 0.1943
vn 0.5072 0.1487 0.8489
vn -0.1010 0.4639 0.8801
s 0
f 10//1 9//1 5//1
f 5//2 9//2 13//2
f 12//3 5//3 8//3
f 11//4 7//4 4//4
f 9//5 6//5 3//5
f 12//6 10//6 5//6
f 12//7 8//7 11//7
f 8//8 2//8 13//8
f 8//9 2//9 11//9
f 7//10 11//10 12//10
f 14//11 7//11 3//11
f 10//12 7//12 14//12
f 10//13 7//13 12//13
f 6//14 9//14 13//14
f 8//15 5//15 13//15
f 9//16 14//16 3//16
f 9//17 10//17 14//17
f 1//18 3//18 7//18
f 1//19 6//19 3//19
f 13//20 1//20 2//20
f 13//21 6//21 1//21
f 4//22 1//22 2//22
f 1//23 4//23 7//23
f 4//24 2//24 11//24
