# Blender 4.3.2
# www.blender.org
o go2_FL_foot_joint_constraints_in_RR_foot_joint_reduced.obj
v 0.645011 0.732463 0.038182
v -0.067140 0.070790 -0.197645
v 1.028584 0.241824 -0.162666
v 0.686703 0.074147 -0.275260
v -0.099517 0.127293 0.248898
v 0.047538 0.525085 -0.251304
v 0.727549 0.604998 0.214597
v 0.858136 0.072910 0.259944
v 0.028874 0.635267 0.164912
v 1.124991 0.166556 0.047356
v 0.868280 0.550737 -0.185370
v -0.255676 0.462760 -0.006977
v 0.128456 0.772041 -0.075735
vn 0.5929 -0.7805 -0.1982
vn 0.5765 -0.5904 0.5648
vn -0.6144 0.2774 0.7386
vn 0.6345 -0.0693 0.7698
vn 0.0482 0.5682 -0.8215
vn -0.1016 -0.0914 -0.9906
vn 0.0041 -1.0000 -0.0036
vn -0.0742 -0.1575 0.9847
vn -0.2789 -0.0743 0.9574
vn 0.9032 0.4290 0.0112
vn 0.7140 0.6820 0.1587
vn 0.7622 0.6207 0.1840
vn 0.0621 -0.1781 -0.9821
vn 0.0577 0.9910 -0.1212
vn 0.0067 -0.8090 -0.5877
vn -0.0391 0.8756 0.4815
vn 0.1767 0.8427 -0.5085
vn -0.2669 0.9597 0.0877
vn 0.5643 0.2066 0.7993
vn 0.0068 -0.0833 -0.9965
vn -0.8681 -0.4326 0.2435
vn -0.5086 0.7095 0.4877
s 0
f 13//1 9//1 12//1
f 6//2 13//2 12//2
f 5//3 9//3 12//3
f 2//4 6//4 12//4
f 11//5 6//5 13//5
f 2//6 6//6 4//6
f 4//7 8//7 2//7
f 4//8 11//8 6//8
f 3//9 11//9 4//9
f 2//10 12//10 5//10
f 7//11 11//11 1//11
f 7//12 10//12 11//12
f 5//13 9//13 7//13
f 5//14 8//14 2//14
f 9//15 1//15 7//15
f 9//16 1//16 13//16
f 1//17 11//17 13//17
f 8//18 10//18 4//18
f 8//19 10//19 7//19
f 7//20 8//20 5//20
f 3//21 10//21 11//21
f 3//22 4//22 10//22
