# Blender 4.3.2
# www.blender.org
o go2_RL_foot_joint_constraints_in_FR_foot_joint_reduced.obj
v -0.847149 0.664414 -0.006082
v 0.187979 0.200050 -0.232331
v -0.552192 0.485343 -0.273097
v -0.967798 0.123996 0.207132
v -0.234059 0.735365 -0.153722
v 0.243888 0.445758 -0.060922
v -0.351395 0.073782 -0.269467
v -0.122238 0.747239 0.056720
v -0.204521 0.067206 0.265849
v -1.066667 0.278380 0.153996
v 0.198266 0.068487 0.084675
v -0.526914 0.586832 0.267743
v 0.056858 0.384586 0.226481
v -1.093509 0.167865 -0.153721
vn 0.2828 -0.1452 -0.9481
vn 0.1139 -0.9935 -0.0045
vn -0.5353 -0.7782 0.3284
vn 0.9830 -0.1562 -0.0967
vn 0.8813 -0.4639 0.0897
vn 0.4613 -0.5508 -0.6956
vn 0.1387 -0.8984 -0.4168
vn 0.2335 0.5044 0.8313
vn 0.6336 0.5619 0.5319
vn -0.8209 -0.1165 -0.5590
vn -0.1529 -0.2606 0.9533
vn -0.4255 -0.4507 0.7848
vn -0.0806 -0.0536 0.9953
vn 0.2356 -0.8949 -0.3790
vn -0.0635 -0.0222 0.9977
vn -0.4008 0.2197 -0.8894
vn -0.0880 -0.0510 -0.9948
vn -0.2476 0.6557 -0.7133
vn 0.0748 0.9972 -0.0083
vn 0.1366 0.9880 0.0725
vn 0.0021 0.9999 0.0117
vn -0.8529 -0.4633 0.2408
vn -0.4350 0.4481 -0.7810
vn -0.1645 -0.0889 -0.9824
s 0
f 10//1 12//1 4//1
f 1//2 5//2 8//2
f 6//3 8//3 5//3
f 11//4 2//4 6//4
f 10//5 14//5 1//5
f 10//6 1//6 12//6
f 12//7 1//7 8//7
f 8//8 12//8 13//8
f 6//9 8//9 13//9
f 6//10 11//10 13//10
f 3//11 2//11 5//11
f 2//12 6//12 5//12
f 9//13 12//13 4//13
f 7//14 2//14 11//14
f 3//15 7//15 2//15
f 13//16 11//16 9//16
f 13//17 9//17 12//17
f 5//18 3//18 1//18
f 4//19 9//19 7//19
f 4//20 7//20 14//20
f 7//21 9//21 11//21
f 10//22 14//22 4//22
f 3//23 14//23 1//23
f 14//24 3//24 7//24
