# Blender 4.3.2
# www.blender.org
o go2_RR_foot_joint_constraints_in_FL_foot_joint_reduced.obj
v -0.645011 -0.732463 -0.038182
v 0.067140 -0.070790 0.197645
v -1.028584 -0.241824 0.162666
v -0.686703 -0.074147 0.275260
v 0.099517 -0.127293 -0.248898
v -0.047538 -0.525085 0.251304
v -0.727549 -0.604998 -0.214597
v -0.858136 -0.072910 -0.259944
v -0.028874 -0.635267 -0.164912
v -1.124991 -0.166556 -0.047356
v -0.868280 -0.550737 0.185370
v 0.255676 -0.462760 0.006977
v -0.128456 -0.772041 0.075735
vn 0.5929 -0.7805 -0.1982
vn -0.5765 0.5904 -0.5648
vn 0.2669 -0.9597 -0.0877
vn 0.0482 0.5682 -0.8215
vn 0.0391 -0.8756 -0.4815
vn 0.6345 -0.0693 0.7698
vn 0.2789 0.0743 -0.9574
vn 0.0742 0.1575 -0.9847
vn 0.0041 -1.0000 -0.0036
vn 0.0621 -0.1781 -0.9821
vn 0.1767 0.8427 -0.5085
vn -0.0067 0.8090 0.5877
vn -0.1016 -0.0914 -0.9906
vn -0.9032 -0.4290 -0.0112
vn 0.5086 -0.7095 -0.4877
vn 0.0577 0.9910 -0.1212
vn -0.7622 -0.6207 -0.1840
vn 0.8681 0.4326 -0.2435
vn -0.7140 -0.6820 -0.1587
vn 0.6144 -0.2774 -0.7386
vn 0.0068 -0.0833 -0.9965
vn 0.5643 0.2066 0.7993
s 0
f 13//1 9//1 12//1
f 13//2 6//2 12//2
f 10//3 8//3 4//3
f 11//4 6//4 13//4
f 1//5 9//5 13//5
f 2//6 6//6 12//6
f 11//7 3//7 4//7
f 11//8 4//8 6//8
f 4//9 8//9 2//9
f 5//10 9//10 7//10
f 1//11 11//11 13//11
f 7//12 1//12 9//12
f 2//13 6//13 4//13
f 2//14 5//14 12//14
f 4//15 3//15 10//15
f 2//16 5//16 8//16
f 11//17 10//17 7//17
f 11//18 10//18 3//18
f 11//19 7//19 1//19
f 9//20 5//20 12//20
f 7//21 8//21 5//21
f 10//22 7//22 8//22
