# Blender 4.3.2
# www.blender.org
o RL_foot_joint_constraints_in_FL_foot_joint_reduced.obj
v -1.131227 -0.019512 -0.019982
v -0.237236 -0.415217 -0.115100
v -0.027596 0.335841 0.051589
v -0.474278 0.395670 0.250784
v -0.009963 0.102483 0.275007
v -1.013521 -0.230716 0.052085
v -0.649300 -0.123383 0.267435
v -0.004545 0.150184 -0.203673
v -0.045607 -0.253414 0.173519
v -0.007476 -0.164685 -0.273339
v -1.031377 0.120577 0.145921
v -0.790028 0.290537 -0.138519
v -0.633550 -0.320356 -0.262974
v -0.961505 0.058021 -0.223858
vn -0.0863 -0.8435 0.5302
vn -0.6095 -0.5383 -0.5820
vn 0.1408 -0.6178 -0.7737
vn 0.0244 -0.1023 0.9945
vn 0.0539 0.9008 -0.4309
vn -0.2318 -0.9728 -0.0028
vn -0.0898 -0.8224 0.5617
vn -0.7521 -0.2055 0.6262
vn -0.4361 -0.2529 0.8636
vn -0.0347 0.0730 -0.9967
vn 0.7095 -0.7003 -0.0785
vn -0.2364 0.1107 0.9653
vn -0.0061 0.2743 -0.9616
vn -0.4590 0.8781 0.1352
vn -0.6973 0.6734 -0.2457
vn 0.9953 0.0951 0.0207
vn -0.5961 -0.4477 -0.6665
vn 0.3793 0.6547 0.6539
vn 0.9971 -0.0668 0.0371
s 0
f 6//1 2//1 9//1
f 13//2 6//2 1//2
f 2//3 13//3 10//3
f 7//4 9//4 5//4 4//4
f 8//5 12//5 4//5 3//5
f 13//6 2//6 6//6
f 6//7 9//7 7//7
f 1//8 6//8 11//8
f 6//9 7//9 11//9
f 13//10 14//10 10//10
f 9//11 2//11 10//11
f 11//12 7//12 4//12
f 8//13 10//13 14//13 12//13
f 12//14 11//14 4//14
f 1//15 11//15 12//15 14//15
f 8//16 3//16 5//16
f 13//17 1//17 14//17
f 5//18 3//18 4//18
f 9//19 10//19 8//19 5//19
