# Blender 4.3.2
# www.blender.org
o RL_foot_joint_constraints_in_FL_foot_joint_reduced.obj
v -1.131227 -0.019512 -0.019982
v -0.237236 -0.415217 -0.115100
v -0.027596 0.335841 0.051589
v -0.474278 0.395670 0.250784
v -0.009963 0.102483 0.275007
v -1.013521 -0.230716 0.052085
v -0.649300 -0.123383 0.267435
v -0.004545 0.150184 -0.203673
v -0.045607 -0.253414 0.173519
v -0.007476 -0.164685 -0.273339
v -1.031377 0.120577 0.145921
v -0.790028 0.290537 -0.138519
v -0.633550 -0.320356 -0.262974
v -0.961505 0.058021 -0.223858
vn 0.0881 -0.2813 0.9556
vn 0.7521 0.2055 -0.6262
vn -0.6945 0.6986 -0.1719
vn 0.0975 0.8391 -0.5351
vn -0.3793 -0.6547 -0.6539
vn 0.1408 -0.6178 -0.7737
vn -0.6095 -0.5383 -0.5820
vn 0.5961 0.4477 0.6665
vn 0.4361 0.2529 -0.8636
vn 0.0795 0.8320 -0.5491
vn 0.4590 -0.8781 -0.1352
vn -0.0965 -0.8091 0.5797
vn -0.6947 0.6358 -0.3365
vn -0.9913 0.1168 -0.0614
vn 0.9953 0.0951 0.0207
vn 0.2318 0.9728 0.0028
vn 0.0096 0.9634 -0.2679
vn 0.9999 -0.0116 0.0102
vn -0.7095 0.7003 0.0785
vn 0.2364 -0.1107 -0.9653
vn 0.0263 -0.0409 -0.9988
vn 0.0423 -0.2162 0.9754
vn -0.0273 -0.3266 0.9448
vn -0.0347 0.0730 -0.9967
s 0
f 7//1 9//1 5//1
f 11//2 6//2 1//2
f 1//3 11//3 12//3
f 9//4 2//4 7//4
f 3//5 5//5 4//5
f 2//6 13//6 10//6
f 13//7 6//7 1//7
f 13//8 14//8 1//8
f 7//9 6//9 11//9
f 2//10 6//10 7//10
f 11//11 12//11 4//11
f 8//12 3//12 12//12
f 14//13 1//13 12//13
f 5//14 10//14 9//14
f 5//15 8//15 3//15
f 13//16 6//16 2//16
f 4//17 3//17 12//17
f 5//18 10//18 8//18
f 10//19 2//19 9//19
f 7//20 11//20 4//20
f 7//21 4//21 5//21
f 8//22 12//22 10//22
f 10//23 12//23 14//23
f 10//24 13//24 14//24
