# Blender 4.3.2
# www.blender.org
o RR_foot_joint_constraints_in_FL_foot_joint_reduced.obj
v -0.645011 -0.732463 -0.038182
v 0.067140 -0.070790 0.197645
v -1.028584 -0.241824 0.162666
v -0.686703 -0.074147 0.275260
v 0.099517 -0.127293 -0.248898
v -0.047538 -0.525085 0.251304
v -0.727549 -0.604998 -0.214597
v -0.858136 -0.072910 -0.259944
v -0.028874 -0.635267 -0.164912
v -1.124991 -0.166556 -0.047356
v -0.868280 -0.550737 0.185370
v 0.255676 -0.462760 0.006977
v -0.128456 -0.772041 0.075735
vn -0.7140 -0.6820 -0.1587
vn -0.5643 -0.2066 -0.7993
vn -0.3540 0.9089 0.2205
vn -0.8062 -0.5864 -0.0788
vn -0.2789 -0.0743 0.9574
vn -0.0658 -0.3226 0.9443
vn 0.6144 -0.2774 -0.7386
vn 0.5929 -0.7805 -0.1982
vn 0.9032 0.4290 0.0112
vn 0.6345 -0.0693 0.7698
vn -0.1767 -0.8427 0.5085
vn 0.0301 -0.1233 -0.9919
vn 0.1016 0.0914 0.9906
vn 0.5765 -0.5904 0.5648
vn 0.0234 -0.8449 -0.5344
vn 0.0274 0.9978 -0.0601
s 0
f 7//1 1//1 11//1
f 7//2 10//2 8//2
f 10//3 3//3 4//3 8//3
f 10//4 7//4 11//4 3//4
f 3//5 11//5 4//5
f 11//6 13//6 6//6 4//6
f 9//7 5//7 12//7
f 13//8 9//8 12//8
f 12//9 5//9 2//9
f 6//10 12//10 2//10
f 11//11 1//11 13//11
f 7//12 8//12 5//12 9//12
f 4//13 6//13 2//13
f 13//14 12//14 6//14
f 1//15 7//15 9//15 13//15
f 8//16 4//16 2//16 5//16
